<svg xmlns="http://www.w3.org/2000/svg" xmlns:xlink="http://www.w3.org/1999/xlink" version="1.1" x="0px" y="0px" viewBox="0 0 32 40" style="enable-background:new 0 0 32 32;" xml:space="preserve"><path d="M30,10.688h-1.375V9.313c0-0.207-0.168-0.375-0.375-0.375h-1.375V7.566c0-0.207-0.168-0.375-0.375-0.375H2  c-0.207,0-0.375,0.168-0.375,0.375V20.93c0,0.207,0.168,0.375,0.375,0.375h1.375v1.378c0,0.207,0.168,0.375,0.375,0.375h1.375v1.375  c0,0.207,0.168,0.375,0.375,0.375H30c0.207,0,0.375-0.168,0.375-0.375v-13.37C30.375,10.856,30.207,10.688,30,10.688z M5.956,20.555  c-0.18-1.899-1.682-3.401-3.581-3.581v-5.451c1.899-0.18,3.401-1.682,3.581-3.582h16.588c0.18,1.899,1.682,3.401,3.581,3.582v5.451  c-1.899,0.18-3.401,1.682-3.581,3.581H5.956z M26.125,17.724v2.831h-2.831C23.468,19.069,24.639,17.898,26.125,17.724z   M26.125,10.773c-1.486-0.174-2.657-1.345-2.831-2.832h2.831V10.773z M5.206,7.941c-0.174,1.486-1.345,2.658-2.831,2.832V7.941  H5.206z M2.375,17.724c1.486,0.174,2.657,1.345,2.831,2.831H2.375V17.724z M4.125,21.305H26.5c0.207,0,0.375-0.168,0.375-0.375  V9.688h1v12.62H4.125V21.305z M29.625,24.059H5.875v-1H28.25c0.207,0,0.375-0.168,0.375-0.375V11.438h1V24.059z"/><path d="M14.274,14.71v-0.607c0-0.3-0.103-0.568-0.264-0.773c0.162-0.206,0.264-0.479,0.264-0.789c0-0.648-0.427-1.156-0.973-1.156  h-1.133c-0.207,0-0.375,0.168-0.375,0.375v3.414c0,0.207,0.168,0.375,0.375,0.375s0.375-0.168,0.375-0.375v-1.477h0.758  c0.089,0,0.223,0.162,0.223,0.406v0.607c0,0.321,0.147,0.618,0.384,0.776c0.171,0.114,0.403,0.07,0.52-0.104  c0.115-0.172,0.068-0.405-0.104-0.52C14.312,14.854,14.274,14.8,14.274,14.71z M12.543,12.136h0.758  c0.089,0,0.223,0.162,0.223,0.406s-0.134,0.406-0.223,0.406h-0.758V12.136z"/><path d="M15.684,12.947c-0.147,0-0.285,0.034-0.412,0.09c-0.065-0.054-0.145-0.09-0.236-0.09c-0.207,0-0.375,0.168-0.375,0.375  v0.648v0.556v2.209c0,0.207,0.168,0.375,0.375,0.375s0.375-0.168,0.375-0.375v-1.242c0.089,0.025,0.176,0.055,0.273,0.055  c0.564,0,1.023-0.459,1.023-1.023V13.97C16.707,13.406,16.248,12.947,15.684,12.947z M15.957,14.526c0,0.15-0.123,0.273-0.273,0.273  s-0.273-0.123-0.273-0.273V13.97c0-0.15,0.123-0.273,0.273-0.273s0.273,0.123,0.273,0.273V14.526z"/><path d="M14.25,9.419c-2.663,0-4.83,2.167-4.83,4.83s2.167,4.83,4.83,4.83s4.83-2.167,4.83-4.83S16.913,9.419,14.25,9.419z   M14.25,18.328c-2.25,0-4.08-1.83-4.08-4.08s1.83-4.08,4.08-4.08s4.08,1.83,4.08,4.08S16.5,18.328,14.25,18.328z"/><text x="0" y="47" fill="#000000" font-size="5px" font-weight="bold" font-family="'Helvetica Neue', Helvetica, Arial-Unicode, Arial, Sans-serif">Created by Athok</text><text x="0" y="52" fill="#000000" font-size="5px" font-weight="bold" font-family="'Helvetica Neue', Helvetica, Arial-Unicode, Arial, Sans-serif">from the Noun Project</text></svg>