<svg xmlns="http://www.w3.org/2000/svg" version="1.0" width="63.000000pt" height="36.000000pt" viewBox="0 0 63.000000 36.000000" preserveAspectRatio="xMidYMid meet">

<g transform="translate(0.000000,36.000000) scale(0.100000,-0.100000)" fill="#ff0004" stroke="none">
<path d="M270 348 c-14 -8 -34 -28 -45 -45 -23 -35 -51 -43 -157 -43 l-68 0 0 -105 0 -105 315 0 315 0 0 104 0 103 -102 5 c-70 4 -103 9 -106 18 -3 7 -16 26 -31 42 -30 34 -84 45 -121 26z m111 -37 c21 -21 29 -39 28 -63 -1 -34 -3 -32 -13 15 -9 41 -41 67 -80 67 -48 0 -78 -28 -86 -81 l-7 -44 -2 38 c-1 53 42 97 94 97 27 0 44 -8 66 -29z m-311 -101 c0 -13 -7 -20 -20 -20 -19 0 -27 20 -13 33 13 14 33 6 33 -13z m60 0 c0 -13 -7 -20 -20 -20 -13 0 -20 7 -20 20 0 13 7 20 20 20 13 0 20 -7 20 -20z m410 0 c0 -13 -7 -20 -20 -20 -13 0 -20 7 -20 20 0 13 7 20 20 20 13 0 20 -7 20 -20z m60 0 c0 -13 -7 -20 -20 -20 -13 0 -20 7 -20 20 0 13 7 20 20 20 13 0 20 -7 20 -20z m-290 -105 c0 -43 -1 -45 -30 -45 -29 0 -30 2 -30 45 0 43 1 45 30 45 29 0 30 -2 30 -45z m70 0 c0 -43 -1 -45 -30 -45 -29 0 -30 2 -30 45 0 43 1 45 30 45 29 0 30 -2 30 -45z m-310 9 c0 -33 -33 -30 -38 4 -3 17 2 22 17 22 16 0 21 -6 21 -26z m60 0 c0 -33 -33 -30 -38 4 -3 17 2 22 17 22 16 0 21 -6 21 -26z m408 4 c-5 -34 -38 -37 -38 -4 0 20 5 26 21 26 15 0 20 -5 17 -22z m60 0 c-5 -34 -38 -37 -38 -4 0 20 5 26 21 26 15 0 20 -5 17 -22z" fill="#ff0004"/>
</g>
</svg>